<svg xmlns="http://www.w3.org/2000/svg" width="900" height="152.5"><path d="M748.633 71.705c2.168-41.68 37.71-73.691 79.375-71.504 41.67 2.188 73.69 37.744 71.523 79.424-1.162 22.334-11.903 41.89-28.037 54.898v-69.97c0-11.124-8.925-28.55-21.797-31.56V146.79a74.678 74.678 0 0 1-14.497 3.642V94.308c0-11.118-8.925-28.545-21.796-31.553v87.725a75.065 75.065 0 0 1-14.498-3.555V119.99c0-11.122-8.931-28.55-21.796-31.557v46.406c-18.462-14.688-29.795-37.779-28.477-63.135m-93.345 58.272c14.57-14.575 21.817-32 21.817-52.455V3.79h-31.549v73.731c0 11.665-4.145 21.72-12.334 29.901-8.173 7.79-18.017 11.744-29.306 11.744-11.621 0-21.68-3.96-29.879-11.767-7.807-8.199-11.767-18.261-11.767-29.877V3.79h-32.085v73.731c0 20.454 7.066 37.87 21.25 52.426 14.566 14.219 32.003 21.304 52.481 21.304 20.098 0 37.163-7.07 51.371-21.275zM411.644 3.746H379.56v147.462h32.085V106.29l80.87 43.125c3.891 2.1 7.831 2.397 12.045.894 4.2-1.499 7.169-4.322 8.995-8.589 1.801-3.906 1.988-7.954.454-12.256-1.534-4.283-4.288-7.265-8.174-9.058l-79.859-42.93 79.859-42.929c3.94-1.82 6.67-4.658 8.174-8.52 1.518-4.263 1.386-8.472-.454-12.793-1.798-3.868-4.728-6.524-8.995-8.048-4.276-1.527-8.256-1.371-12.138.396L411.645 48.66V3.746zm-53.422-.059h-32.086v147.564h32.085V3.687zM13.295 80.641C22.07 89.08 32.651 93.292 45.21 93.292h57.417c3.29 0 6.036 1.645 8.218 4.18 2.661 2.304 4.175 5.263 4.175 8.754 0 3.545-1.554 6.54-4.283 8.853-2.27 2.232-4.994 3.54-8.11 3.54H16.685c-22.545 0-21.944 32.632 0 32.632h85.942c12.134 0 22.524-4.346 31.328-13.153 8.789-8.786 13.155-19.347 13.155-31.872 0-12.134-4.371-22.543-13.175-31.353-8.813-9.154-19.214-13.666-31.308-13.666H45.21c-7.1 0-12.935-5.117-12.935-12.397 0-8.257 4.674-12.935 12.935-12.935h80.899c19.697 0 19.042-32.085 0-32.085H45.21c-12.48 0-23.051 4.536-31.85 13.667C4.556 26.267.19 36.677.19 48.81c0 12.505 4.346 23.051 13.106 31.831zm247.427-18.893h-55.024c-12.54 0-23.101 4.196-31.871 12.608-8.784 8.79-13.15 19.347-13.15 31.87 0 12.134 4.366 22.545 13.17 31.353 8.798 9.136 19.37 13.672 31.85 13.672h99.507V48.81c0-12.476-4.326-23.048-13.149-31.87-8.804-8.804-19.195-13.15-31.334-13.15h-71.85c-21.943 0-22.545 32.627 0 32.627h71.85c3.115 0 5.845 1.314 8.11 3.54 2.73 2.32 4.283 5.313 4.283 8.858 0 3.491-1.509 6.45-4.17 8.755-2.183 2.533-4.931 4.178-8.223 4.178zm-55.024 32.086h67.587v25.332H205.7c-8.263 0-12.935-4.682-12.935-12.94 0-7.275 5.835-12.392 12.935-12.392" fill="#c52120"/></svg>